#!OML:ASF F:\VICON\USERDATA\INSTALL\rory3\rory3.ASF
:FULLY-SPECIFIED
:DEGREES
64
root -0.25940450392709 17.55969457695449 31.176937907297724 0.4249808957028617 6.380814479674044 -0.9453567941140786
lfemur -25.547708815537142 -0.951257371477775 -24.8442759640837
ltibia 37.25871550238547
lfoot -10.816163269276197 -12.40632726321575
ltoes 2.2520888449472887
rfemur -2.8234243263844068 -1.4756844290944158 25.325509608567444
rtibia 96.71856518305063
rfoot 18.88602311563754 -9.39336992310048
rtoes 7.853914518957927
lowerback 15.082899886629972 2.061417426977058 1.1408815760560682
upperback -0.22071970012653855 2.9087817646646434 -0.5766465673347543
thorax -8.53497983477128 1.3462165930855439 -1.7634759609691963
lowerneck -18.95896094619805 -6.377232161883277 -2.381367439236186
upperneck 15.516799432859536 -8.940182937891134 4.549750938221077
head 8.32395585335617 -3.9445902721438637 0.8439933200903618
lclavicle -9.040512805979877e-16 -7.659800013671208e-16
lhumerus -65.34233779843552 -2.3969409819803147 96.58077184747482
lradius 115.08085204874251
lwrist 37.09041178501708
lhand -23.502585426926444 4.5570685060948275
lfingers 7.125020000000057
lthumb 2.957434227059321 34.457439144020356
rclavicle -9.040512805979877e-16 -7.659800013671208e-16
rhumerus -39.79912044663026 14.796414970913233 -101.35296657548207
rradius 105.41043122418061
rwrist -17.941224017141025
rhand -21.00541998031013 -6.150582543073565
rfingers 7.125020000000057
rthumb 5.366841797163602 12.740905636966401
65
root -0.2721029336216649 17.33520801998897 31.75616524793382 0.32518700933933076 6.1251952043949345 0.19387498084621724
lfemur -23.43798548695591 -1.4289006869355527 -26.341644818169204
ltibia 40.98364416554139
lfoot -16.19839070709884 -8.50050731389387
ltoes 3.3138160587701018
rfemur -8.487174604038799 -3.301934057507188 22.263042948150513
rtibia 104.59699802181946
rfoot 17.344571522048323 -8.586791414765855
rtoes 9.673006146012963
lowerback 15.785211242963513 2.014995400939869 -0.20030384912194132
upperback -0.06556837392067771 2.5927240853017017 -0.9340641787739548
thorax -8.784407540048322 1.2393370671777322 -1.308667774045852
lowerneck -19.25269134995794 -6.286008658777902 -2.299861419641848
upperneck 15.46690017290801 -8.845629786376055 4.612826114687543
head 8.35699459635869 -3.881817083267099 0.8589030309688334
lclavicle -9.456743096409305e-16 -7.982088322853297e-16
lhumerus -60.793873579879104 -4.649779247010425 97.2325071785059
lradius 112.95127255245605
lwrist 37.5747632387459
lhand -23.77431053460058 5.3114723715022905
lfingers 7.125020000000057
lthumb 2.6951009239518475 35.216278117667606
rclavicle -9.456743096409305e-16 -7.982088322853297e-16
rhumerus -41.291033783540335 13.255598659262926 -101.71845561797278
rradius 102.69188724126498
rwrist -17.918257708874282
rhand -21.163035164663615 -6.195022079666142
rfingers 7.125020000000057
rthumb 5.214807323903814 11.882450041926388
66
root -0.2719943212037612 17.152157607531496 32.44449491991692 0.49845185721666097 5.797027876922259 1.2592642958516334
lfemur -20.794134351910557 -1.926755838614781 -27.70561024813477
ltibia 43.82178713023354
lfoot -21.008209608937733 -4.065960263324098
ltoes 2.532060551697973
rfemur -14.590824590690483 -4.780106972049399 19.65225848188438
rtibia 111.18859258488982
rfoot 15.795513044855172 -7.518234071225008
rtoes 11.253420907711963
lowerback 16.38214333414142 1.94540196108513 -1.3587638720864652
upperback 0.028233352899539654 2.2696617974686393 -1.2522974396912294
thorax -9.01307616106606 1.1233701635964448 -0.8738654450828759
lowerneck -19.554284427204124 -6.145894677650503 -2.223485891755231
upperneck 15.458729088057172 -8.670458360750015 4.637765853715255
head 8.400433044794273 -3.7860136358687617 0.8693739473105857
lclavicle -8.230389226095641e-16 -7.03251902832829e-16
lhumerus -55.82259558865526 -6.852546579357316 97.69048407578254
lradius 111.33538916825187
lwrist 38.258939134989845
lhand -23.914799615848622 5.774843344740302
lfingers 7.125020000000057
lthumb 2.559461899570209 35.68230976984937
rclavicle -8.230389226095641e-16 -7.03251902832829e-16
rhumerus -42.86761652613946 11.822536110895932 -101.88694199194815
rradius 100.78083636065216
rwrist -18.19166596336088
rhand -21.255320580873896 -6.284006967963055
rfingers 7.125020000000057
rthumb 5.125922828883619 11.373339295612887
67
root -0.26465814121702635 17.022991371585643 33.0989747551709 0.8012599651692075 5.400293142788971 2.027313259230349
lfemur -17.800260352915473 -2.4410345417883423 -28.757375628317845
ltibia 45.167266141227486
lfoot -24.73329886575023 -0.20718342438942194
ltoes 0.24314865488034076
rfemur -21.18364150240865 -6.003551620903302 17.72700845020355
rtibia 115.75905153539853
rfoot 13.93618475765084 -6.631680128459677
rtoes 11.914289643445887
lowerback 16.79086739366906 1.7636706621980505 -2.2643542448418588
upperback 0.047788643145630805 1.8499189679656027 -1.4598039253787862
thorax -9.232100343659193 0.9542721956437619 -0.47469048794277346
lowerneck -19.831380816394503 -5.9527726391747855 -2.179420172508764
upperneck 15.426096967013047 -8.408157646371563 4.582446362343502
head 8.423973341178952 -3.6551458832512482 0.869628420130589
lclavicle -8.728820255219599e-16 -7.418455698313459e-16
lhumerus -50.989644364640704 -8.80455903645696 97.79492167708169
lradius 109.85840505935975
lwrist 38.8497142148034
lhand -23.95203041440506 5.672162250048113
lfingers 7.125020000000057
lthumb 2.523512905657058 35.581769665271985
rclavicle -8.728820255219599e-16 -7.418455698313459e-16
rhumerus -44.783534005905246 10.521605977197677 -102.07562990205759
rradius 99.31375287774698
rwrist -18.96209658139158
rhand -21.271633683064618 -6.560417821717014
rfingers 7.125020000000057
rthumb 5.110382437889903 11.023286561356942
68
root -0.24892392571749689 16.965219363065195 34.04339081203886 1.1907455017265156 5.019355871192111 2.4562995529194844
lfemur -14.261788057891811 -2.893577032196068 -29.26397001023834
ltibia 45.34206806423644
lfoot -26.661051995497587 2.3783712946998152
ltoes -3.006199147101433
rfemur -27.677487775685414 -6.970521520394771 16.767483777802823
rtibia 118.38012924110126
rfoot 11.913725783229344 -6.054853794075178
rtoes 11.609919584701785
lowerback 17.010824686080376 1.4562400433292115 -2.809360733543378
upperback 0.00524006943198202 1.3383944653205069 -1.4856414045778024
thorax -9.396702994343345 0.7325106059212592 -0.05400820704065756
lowerneck -20.02079758546087 -5.677844503253059 -2.1531862956069783
upperneck 15.475569946027758 -8.020659590200408 4.463623577392509
head 8.452709246695221 -3.4726800548210566 0.8665589375992435
lclavicle -8.289055375765436e-16 -7.077944574546279e-16
lhumerus -46.39175267173698 -10.16349877252094 97.62222077278744
lradius 109.07416596415615
lwrist 39.51514132809645
lhand -23.876352026754297 5.225309562257721
lfingers 7.125020000000057
lthumb 2.5965903934826446 35.13725430923955
rclavicle -8.289055375765436e-16 -7.077944574546279e-16
rhumerus -46.894399100789364 9.70646119182079 -102.10352062674325
rradius 98.8389876719441
rwrist -20.11170950464576
rhand -21.154299394160557 -6.831655176547347
rfingers 7.125020000000057
rthumb 5.223848096418063 10.797269617804096
69
root -0.23510416749358265 16.985315957086733 35.09286503189523 1.641126717101682 4.645026401456651 2.559412067864638
lfemur -10.312253608455332 -3.2251073659528053 -29.28002836933825
ltibia 44.25437600111157
lfoot -26.496505529874398 3.2649354005384223
ltoes -7.187353417369599
rfemur -33.699589187985374 -7.647234223485913 16.72978319233493
rtibia 118.6269941934784
rfoot 9.864879549205458 -5.803968678927897
rtoes 10.53190732551148
lowerback 17.002987608439813 1.0352175254044294 -3.037409600390869
upperback -0.09511795377785481 0.7470513834141181 -1.3363871433697059
thorax -9.494536957891176 0.4649042357021589 0.3855125377862436
lowerneck -20.141079387717085 -5.32335521380903 -2.133169608929887
upperneck 15.641123734899907 -7.517548521222681 4.284580964109943
head 8.502518889164016 -3.2411252902758036 0.8588181502852419
lclavicle -7.634461147955991e-16 -6.571090454721976e-16
lhumerus -42.303991535507976 -10.803203159063285 97.19604216858394
lradius 108.83309902328574
lwrist 40.37496056004409
lhand -23.748096035415884 4.5622696825999025
lfingers 7.125020000000057
lthumb 2.7204395785121545 34.47617674465606
rclavicle -7.634461147955991e-16 -6.571090454721976e-16
rhumerus -49.19997325717247 9.375369425935506 -101.99646610516052
rradius 99.14593443307609
rwrist -21.684712131687338
rhand -20.91360733816696 -7.0954753249923534
rfingers 7.125020000000057
rthumb 5.456377510172953 10.614443687072201
